<?xml version="1.0" standalone="no"?>
<!DOCTYPE svg PUBLIC "-//W3C//DTD SVG 20010904//EN"
 "http://www.w3.org/TR/2001/REC-SVG-20010904/DTD/svg10.dtd">
<svg version="1.0" xmlns="http://www.w3.org/2000/svg"
 width="381.000000pt" height="381.000000pt" viewBox="0 0 381.000000 381.000000"
 preserveAspectRatio="xMidYMid meet">
<metadata>
Created by potrace 1.14, written by Peter Selinger 2001-2017
</metadata>
<g transform="translate(0.000000,381.000000) scale(0.100000,-0.100000)"
fill="#000000" stroke="none">
<path d="M0 1905 l0 -1905 1905 0 1905 0 0 1905 0 1905 -1905 0 -1905 0 0
-1905z m1952 1349 c17 -9 52 -31 78 -50 26 -19 52 -34 58 -34 6 0 12 -4 14 -8
4 -9 179 -107 258 -144 195 -92 446 -166 638 -190 87 -11 95 -14 127 -47 l35
-35 -1 -156 c-1 -257 -31 -488 -98 -757 -25 -102 -68 -236 -87 -271 -8 -15
-14 -31 -14 -35 0 -10 -66 -156 -80 -177 -6 -8 -15 -25 -20 -38 -6 -13 -24
-43 -40 -67 -17 -24 -30 -47 -30 -50 0 -7 -53 -82 -90 -129 -8 -10 -50 -55
-92 -100 l-77 -81 -156 155 c-85 85 -155 158 -155 162 0 4 48 55 108 115 137
138 224 237 261 296 52 80 89 164 101 224 6 32 14 66 16 76 5 16 -10 17 -213
17 l-218 0 -22 -48 c-30 -65 -102 -134 -187 -178 -67 -35 -76 -38 -161 -37
-78 0 -97 4 -145 28 -73 36 -161 125 -196 200 -24 51 -29 73 -29 140 0 231
172 388 410 373 138 -9 257 -95 312 -226 l14 -33 198 3 c226 3 237 7 227 69
-15 95 -121 288 -204 375 -93 96 -233 182 -357 218 -92 27 -302 33 -401 11
-71 -15 -163 -49 -204 -75 -8 -5 -32 -18 -52 -29 -102 -55 -233 -199 -296
-326 -88 -174 -106 -405 -47 -584 29 -90 75 -189 103 -223 68 -82 364 -390
510 -532 30 -28 77 -75 104 -103 28 -29 107 -108 175 -175 67 -68 123 -125
123 -129 0 -9 -81 -41 -189 -74 -52 -16 -57 -16 -125 5 -39 12 -89 30 -112 41
-23 10 -46 19 -51 19 -12 0 -131 62 -198 103 -120 74 -271 208 -350 311 -16
22 -39 51 -51 65 -17 22 -60 88 -101 156 -40 66 -126 253 -148 321 -9 27 -20
58 -25 69 -16 35 -69 237 -86 325 -40 214 -71 557 -62 689 8 112 34 133 177
151 127 15 366 77 466 121 11 5 43 17 70 28 79 30 271 132 373 197 161 103
164 104 214 78z"/>
</g>
</svg>
